<svg width="1320" height="2868" viewBox="0 0 1320 2868" fill="none" xmlns="http://www.w3.org/2000/svg">
  <rect width="1320" height="2868" rx="160" fill="#0B1120"/>
  <rect x="140" y="280" width="1040" height="1360" rx="80" fill="#111827" stroke="#253045" stroke-width="6"/>
  <text x="160" y="1880" fill="#E2E8F0" font-family="Space Grotesk, Arial" font-size="60" font-weight="700">Smooth combo clears</text>
  <text x="160" y="1978" fill="#94A3B8" font-family="Space Grotesk, Arial" font-size="34" font-weight="500">Placeholder screenshot · gameplay coming soon</text>
  <g transform="translate(220 360)" opacity="0.95">
    <rect x="0" y="0" width="880" height="1180" rx="56" fill="#0F172A"/>
    <rect x="70" y="80" width="140" height="140" rx="26" fill="#4ADE80"/>
    <rect x="230" y="80" width="140" height="140" rx="26" fill="#38BDF8"/>
    <rect x="390" y="80" width="140" height="140" rx="26" fill="#A855F7"/>
    <rect x="550" y="80" width="140" height="140" rx="26" fill="#F97316"/>
    <rect x="70" y="240" width="140" height="140" rx="26" fill="#FACC15"/>
    <rect x="230" y="240" width="140" height="140" rx="26" fill="#FB7185"/>
    <rect x="390" y="240" width="140" height="140" rx="26" fill="#22D3EE"/>
    <rect x="550" y="240" width="140" height="140" rx="26" fill="#F472B6"/>
  </g>
</svg>
