<svg width="1320" height="2868" viewBox="0 0 1320 2868" fill="none" xmlns="http://www.w3.org/2000/svg">
  <defs>
    <linearGradient id="bg" x1="0" y1="0" x2="1" y2="1">
      <stop offset="0%" stop-color="#0F172A"/>
      <stop offset="100%" stop-color="#1E293B"/>
    </linearGradient>
  </defs>
  <rect width="1320" height="2868" rx="160" fill="url(#bg)"/>
  <rect x="140" y="220" width="1040" height="1480" rx="80" fill="#0B1220" stroke="#1F2A44" stroke-width="6"/>
  <text x="160" y="1960" fill="#E2E8F0" font-family="Space Grotesk, Arial" font-size="64" font-weight="700">Blok Blast Flow</text>
  <text x="160" y="2060" fill="#94A3B8" font-family="Space Grotesk, Arial" font-size="34" font-weight="500">Placeholder screenshot · gameplay coming soon</text>
  <g transform="translate(200 320)">
    <rect width="920" height="1320" rx="60" fill="#0F172A"/>
    <g opacity="0.9">
      <rect x="40" y="40" width="120" height="120" rx="24" fill="#F97316"/>
      <rect x="180" y="40" width="120" height="120" rx="24" fill="#38BDF8"/>
      <rect x="320" y="40" width="120" height="120" rx="24" fill="#A855F7"/>
      <rect x="460" y="40" width="120" height="120" rx="24" fill="#FACC15"/>
      <rect x="600" y="40" width="120" height="120" rx="24" fill="#4ADE80"/>
      <rect x="40" y="180" width="120" height="120" rx="24" fill="#FB7185"/>
      <rect x="180" y="180" width="120" height="120" rx="24" fill="#22D3EE"/>
      <rect x="320" y="180" width="120" height="120" rx="24" fill="#F472B6"/>
      <rect x="460" y="180" width="120" height="120" rx="24" fill="#38BDF8"/>
      <rect x="600" y="180" width="120" height="120" rx="24" fill="#F97316"/>
    </g>
  </g>
</svg>
