<svg xmlns="http://www.w3.org/2000/svg" viewBox="0 0 1024 1024" role="img" aria-label="QR Reader Creator icon">
  <defs>
    <linearGradient id="bg" x1="0" x2="1" y1="0" y2="1">
      <stop stop-color="#1565ff"/>
      <stop offset="1" stop-color="#0b3fbd"/>
    </linearGradient>
  </defs>
  <rect width="1024" height="1024" rx="220" fill="url(#bg)"/>
  <rect x="210" y="210" width="604" height="604" rx="92" fill="#fff" opacity=".98"/>
  <g fill="#111827">
    <rect x="284" y="284" width="128" height="128" rx="26"/>
    <rect x="612" y="284" width="128" height="128" rx="26"/>
    <rect x="284" y="612" width="128" height="128" rx="26"/>
    <rect x="476" y="284" width="58" height="58" rx="14"/>
    <rect x="476" y="400" width="58" height="58" rx="14"/>
    <rect x="546" y="470" width="58" height="58" rx="14"/>
    <rect x="616" y="540" width="58" height="58" rx="14"/>
    <rect x="686" y="610" width="58" height="58" rx="14"/>
    <rect x="476" y="616" width="58" height="58" rx="14"/>
    <rect x="546" y="686" width="58" height="58" rx="14"/>
  </g>
  <path d="M190 500h142M692 500h142M512 190v142M512 692v142" stroke="#1565ff" stroke-width="34" stroke-linecap="round"/>
</svg>
