<svg xmlns="http://www.w3.org/2000/svg" viewBox="0 0 1242 2688" role="img" aria-label="QR Reader Creator scan screen">
  <rect width="1242" height="2688" fill="#fbfcff"/>
  <rect x="90" y="120" width="1062" height="2448" rx="96" fill="#ffffff" stroke="#e4e9f2" stroke-width="8"/>
  <text x="150" y="280" fill="#111827" font-family="Arial, sans-serif" font-size="76" font-weight="700">Scan QR</text>
  <text x="150" y="360" fill="#5f6b7a" font-family="Arial, sans-serif" font-size="42">Point your camera at a code.</text>
  <rect x="150" y="500" width="942" height="942" rx="80" fill="#f5f8ff" stroke="#1565ff" stroke-width="10"/>
  <g fill="#111827">
    <rect x="280" y="630" width="170" height="170" rx="34"/>
    <rect x="792" y="630" width="170" height="170" rx="34"/>
    <rect x="280" y="1118" width="170" height="170" rx="34"/>
    <rect x="538" y="650" width="78" height="78" rx="18"/>
    <rect x="538" y="830" width="78" height="78" rx="18"/>
    <rect x="640" y="932" width="78" height="78" rx="18"/>
    <rect x="744" y="1038" width="78" height="78" rx="18"/>
    <rect x="846" y="1140" width="78" height="78" rx="18"/>
    <rect x="538" y="1140" width="78" height="78" rx="18"/>
    <rect x="640" y="1242" width="78" height="78" rx="18"/>
  </g>
  <rect x="150" y="1570" width="942" height="180" rx="42" fill="#1565ff"/>
  <text x="218" y="1685" fill="#ffffff" font-family="Arial, sans-serif" font-size="54" font-weight="700">Camera scanner ready</text>
  <rect x="150" y="1830" width="942" height="160" rx="38" fill="#ffffff" stroke="#e4e9f2" stroke-width="5"/>
  <text x="210" y="1930" fill="#111827" font-family="Arial, sans-serif" font-size="46" font-weight="700">Read from Photos</text>
  <rect x="150" y="2040" width="942" height="160" rx="38" fill="#ffffff" stroke="#e4e9f2" stroke-width="5"/>
  <text x="210" y="2140" fill="#111827" font-family="Arial, sans-serif" font-size="46" font-weight="700">Save to History</text>
</svg>
