<svg width="1024" height="1024" viewBox="0 0 1024 1024" fill="none" xmlns="http://www.w3.org/2000/svg">
  <defs>
    <linearGradient id="bg" x1="132" y1="96" x2="892" y2="928" gradientUnits="userSpaceOnUse">
      <stop stop-color="#FF8A5B"/>
      <stop offset="0.52" stop-color="#FF4F87"/>
      <stop offset="1" stop-color="#4A5DFF"/>
    </linearGradient>
    <linearGradient id="glass" x1="238" y1="240" x2="786" y2="786" gradientUnits="userSpaceOnUse">
      <stop stop-color="white" stop-opacity="0.96"/>
      <stop offset="1" stop-color="#FFF2ED" stop-opacity="0.82"/>
    </linearGradient>
  </defs>
  <rect x="64" y="64" width="896" height="896" rx="224" fill="url(#bg)"/>
  <rect x="248" y="198" width="528" height="628" rx="96" fill="#10131F" fill-opacity="0.22"/>
  <rect x="228" y="178" width="528" height="628" rx="96" fill="url(#glass)"/>
  <rect x="314" y="290" width="356" height="422" rx="48" fill="#11151C"/>
  <rect x="352" y="338" width="280" height="154" rx="28" fill="#1C2230"/>
  <rect x="352" y="530" width="168" height="136" rx="24" fill="#FF7A5C"/>
  <rect x="540" y="530" width="92" height="136" rx="24" fill="#4B5FFF"/>
  <circle cx="492" cy="415" r="84" fill="#FFF3EA"/>
  <circle cx="492" cy="415" r="54" fill="#FF5A87"/>
  <path d="M388 246H596" stroke="#FFFFFF" stroke-opacity="0.72" stroke-width="18" stroke-linecap="round"/>
  <path d="M690 314V666" stroke="#FFFFFF" stroke-opacity="0.45" stroke-width="10" stroke-dasharray="18 18" stroke-linecap="round"/>
  <path d="M598 744C643.287 744 680 780.713 680 826H304C304 780.713 340.713 744 386 744H598Z" fill="#FFF2EA" fill-opacity="0.95"/>
</svg>
