<svg width="1290" height="2796" viewBox="0 0 1290 2796" fill="none" xmlns="http://www.w3.org/2000/svg">
  <defs>
    <linearGradient id="bg5" x1="126" y1="158" x2="1176" y2="2644" gradientUnits="userSpaceOnUse">
      <stop stop-color="#161823"/>
      <stop offset="0.52" stop-color="#132330"/>
      <stop offset="1" stop-color="#152B23"/>
    </linearGradient>
  </defs>
  <rect width="1290" height="2796" rx="140" fill="url(#bg5)"/>
  <rect x="118" y="182" width="1054" height="2432" rx="84" fill="white" fill-opacity="0.05" stroke="white" stroke-opacity="0.1" stroke-width="2"/>
  <text x="158" y="366" fill="#FFFFFF" font-family="Arial, sans-serif" font-size="72" font-weight="700">Ready for TikTok, Reels,</text>
  <text x="158" y="456" fill="#FFFFFF" font-family="Arial, sans-serif" font-size="72" font-weight="700">Status, Kwai, and YouTube</text>
  <rect x="164" y="620" width="962" height="1580" rx="56" fill="#FFFFFF" fill-opacity="0.06"/>
  <rect x="222" y="700" width="846" height="300" rx="38" fill="#11151C"/>
  <rect x="264" y="760" width="170" height="180" rx="32" fill="#25F4EE"/>
  <rect x="468" y="760" width="170" height="180" rx="32" fill="#FE2C55"/>
  <rect x="672" y="760" width="170" height="180" rx="32" fill="#7C5CFF"/>
  <rect x="876" y="760" width="120" height="180" rx="32" fill="#FFCC00"/>
  <rect x="222" y="1080" width="846" height="1020" rx="38" fill="#11151C"/>
  <rect x="286" y="1160" width="718" height="160" rx="28" fill="white" fill-opacity="0.08"/>
  <rect x="286" y="1380" width="718" height="160" rx="28" fill="white" fill-opacity="0.08"/>
  <rect x="286" y="1600" width="718" height="160" rx="28" fill="white" fill-opacity="0.08"/>
  <rect x="286" y="1820" width="718" height="160" rx="28" fill="white" fill-opacity="0.08"/>
  <text x="354" y="1262" fill="#FFFFFF" font-family="Arial, sans-serif" font-size="54" font-weight="700">TikTok / Reels</text>
  <text x="354" y="1482" fill="#FFFFFF" font-family="Arial, sans-serif" font-size="54" font-weight="700">WhatsApp Status</text>
  <text x="354" y="1702" fill="#FFFFFF" font-family="Arial, sans-serif" font-size="54" font-weight="700">Kwai</text>
  <text x="354" y="1922" fill="#FFFFFF" font-family="Arial, sans-serif" font-size="54" font-weight="700">YouTube</text>
  <text x="160" y="2358" fill="#D6FFE9" font-family="Arial, sans-serif" font-size="42">Placeholder layout for social-output messaging</text>
</svg>
