<svg width="1290" height="2796" viewBox="0 0 1290 2796" fill="none" xmlns="http://www.w3.org/2000/svg">
  <defs>
    <linearGradient id="bg4" x1="96" y1="174" x2="1180" y2="2650" gradientUnits="userSpaceOnUse">
      <stop stop-color="#151826"/>
      <stop offset="0.5" stop-color="#2C1236"/>
      <stop offset="1" stop-color="#351823"/>
    </linearGradient>
  </defs>
  <rect width="1290" height="2796" rx="140" fill="url(#bg4)"/>
  <rect x="118" y="182" width="1054" height="2432" rx="84" fill="white" fill-opacity="0.05" stroke="white" stroke-opacity="0.1" stroke-width="2"/>
  <text x="158" y="378" fill="#FFFFFF" font-family="Arial, sans-serif" font-size="92" font-weight="700">Trim fast</text>
  <text x="158" y="484" fill="#FFD6E8" font-family="Arial, sans-serif" font-size="72" font-weight="600">Pick the perfect cover</text>
  <rect x="160" y="640" width="970" height="1480" rx="56" fill="#11151C"/>
  <rect x="216" y="712" width="858" height="720" rx="40" fill="#FFF3EA"/>
  <rect x="216" y="1490" width="858" height="158" rx="32" fill="white" fill-opacity="0.08"/>
  <rect x="260" y="1540" width="430" height="58" rx="20" fill="#FF8A5B"/>
  <rect x="216" y="1736" width="858" height="260" rx="40" fill="white" fill-opacity="0.08"/>
  <rect x="254" y="1788" width="190" height="156" rx="24" fill="#4A5DFF"/>
  <rect x="470" y="1788" width="190" height="156" rx="24" fill="#FF4F87"/>
  <rect x="686" y="1788" width="190" height="156" rx="24" fill="#FF8A5B"/>
  <circle cx="644" cy="1072" r="184" fill="#FF4F87"/>
  <circle cx="644" cy="1072" r="110" fill="#11151C"/>
  <rect x="612" y="1514" width="72" height="108" rx="20" fill="#FFF3EA"/>
  <text x="160" y="2290" fill="#FFFFFF" font-family="Arial, sans-serif" font-size="48" font-weight="700">Post-record editing stays quick</text>
  <text x="160" y="2362" fill="#FFD7E8" font-family="Arial, sans-serif" font-size="40">Trim clips, choose a cover, then save or share</text>
</svg>
