<svg width="1290" height="2796" viewBox="0 0 1290 2796" fill="none" xmlns="http://www.w3.org/2000/svg">
  <defs>
    <linearGradient id="bg6" x1="112" y1="150" x2="1178" y2="2642" gradientUnits="userSpaceOnUse">
      <stop stop-color="#101521"/>
      <stop offset="0.5" stop-color="#1C1731"/>
      <stop offset="1" stop-color="#1B2A35"/>
    </linearGradient>
  </defs>
  <rect width="1290" height="2796" rx="140" fill="url(#bg6)"/>
  <rect x="118" y="182" width="1054" height="2432" rx="84" fill="white" fill-opacity="0.05" stroke="white" stroke-opacity="0.1" stroke-width="2"/>
  <text x="158" y="378" fill="#FFFFFF" font-family="Arial, sans-serif" font-size="88" font-weight="700">Creator-ready controls</text>
  <text x="158" y="484" fill="#D8DEFF" font-family="Arial, sans-serif" font-size="66" font-weight="600">4K, FPS, MP4/MOV, time-lapse, zoom, torch</text>
  <rect x="166" y="650" width="958" height="1502" rx="56" fill="#11151C"/>
  <rect x="226" y="730" width="838" height="196" rx="34" fill="white" fill-opacity="0.08"/>
  <rect x="226" y="986" width="838" height="196" rx="34" fill="white" fill-opacity="0.08"/>
  <rect x="226" y="1242" width="838" height="196" rx="34" fill="white" fill-opacity="0.08"/>
  <rect x="226" y="1498" width="838" height="196" rx="34" fill="white" fill-opacity="0.08"/>
  <rect x="226" y="1754" width="838" height="196" rx="34" fill="white" fill-opacity="0.08"/>
  <text x="288" y="848" fill="#FFFFFF" font-family="Arial, sans-serif" font-size="52" font-weight="700">1080p and 4K recording</text>
  <text x="288" y="1104" fill="#FFFFFF" font-family="Arial, sans-serif" font-size="52" font-weight="700">24 / 30 / 60 FPS</text>
  <text x="288" y="1360" fill="#FFFFFF" font-family="Arial, sans-serif" font-size="52" font-weight="700">MP4 and MOV export</text>
  <text x="288" y="1616" fill="#FFFFFF" font-family="Arial, sans-serif" font-size="52" font-weight="700">Front/back switch, AE/AF lock</text>
  <text x="288" y="1872" fill="#FFFFFF" font-family="Arial, sans-serif" font-size="52" font-weight="700">Optional audio and time-lapse</text>
  <text x="160" y="2326" fill="#D7DEFF" font-family="Arial, sans-serif" font-size="42">Use these until final screenshots arrive</text>
</svg>
